<svg width="72" height="38" viewBox="0 0 72 38" fill="none" xmlns="http://www.w3.org/2000/svg">
<rect width="72" height="38" rx="10" fill="#9810FA"/>
<path d="M21.8203 12.1201V25.2451H20.4873V12.1201H21.8203ZM19.1543 12.3984V24.5859H17.8359V17.9062H15.7998V16.7637H17.8359V12.3984H19.1543ZM14.5107 15.7822C14.5107 18.0234 15.4189 20.2646 17.2646 21.334L16.4297 22.3594C15.1772 21.6123 14.313 20.2866 13.8662 18.6973C13.3901 20.4111 12.4966 21.8687 11.2148 22.667L10.3652 21.627C12.2256 20.499 13.1777 18.1113 13.1777 15.7822V14.7275H10.7607V13.5996H16.7666V14.7275H14.5107V15.7822ZM35.4727 17.877V18.917H30.1846V20.0156H33.9785V22.9746H26.332V24.0586H34.3447V25.1133H24.9697V22.0078H32.6016V21.0264H24.9551V20.0156H28.8076V18.917H23.5342V17.877H35.4727ZM30.1846 12.0615V13.2188H34.2861V14.2881H30.3018C30.5654 15.4014 32.3452 16.1777 34.8867 16.3096L34.4619 17.3643C32.1768 17.2031 30.3164 16.5293 29.4961 15.3721C28.6758 16.5293 26.8154 17.2031 24.5156 17.3643L24.1201 16.3096C26.6396 16.1777 28.4121 15.4014 28.7051 14.2881H24.7207V13.2188H28.8076V12.0615H30.1846ZM46.708 12.1201V17.4375H48.8174V18.5947H46.708V25.2451H45.3311V12.1201H46.708ZM44.1885 14.1709V15.3135H36.4102V14.1709H39.6475V12.2959H41.0391V14.1709H44.1885ZM40.3506 16.2803C42.2256 16.2803 43.6025 17.54 43.6172 19.3271C43.6025 21.1289 42.2256 22.374 40.3506 22.3887C38.4609 22.374 37.084 21.1289 37.084 19.3271C37.084 17.54 38.4609 16.2803 40.3506 16.2803ZM40.3506 17.4229C39.2373 17.4229 38.4023 18.1992 38.417 19.3271C38.4023 20.4697 39.2373 21.2314 40.3506 21.2168C41.4639 21.2314 42.2842 20.4697 42.2842 19.3271C42.2842 18.1992 41.4639 17.4229 40.3506 17.4229ZM60.3604 12.1201V25.2451H58.9541V12.1201H60.3604ZM56.4492 13.5264C56.4492 17.3643 54.8086 20.7041 50.3115 22.8574L49.5791 21.7295C53.0728 20.0669 54.772 17.7012 55.043 14.6396H50.209V13.5264H56.4492Z" fill="white"/>
</svg>
