<svg width="34" height="33" viewBox="0 0 34 33" fill="none" xmlns="http://www.w3.org/2000/svg">
<path d="M26.5613 13.3507V12.3818C26.5613 7.06232 22.2805 2.75 17 2.75C11.7195 2.75 7.43873 7.06232 7.43873 12.3818V13.3507C7.43873 14.5133 7.0971 15.65 6.45688 16.6174L4.88801 18.9881C3.455 21.1535 4.54898 24.0968 7.04135 24.7815C13.5614 26.5728 20.4386 26.5728 26.9587 24.7815C29.451 24.0968 30.545 21.1535 29.112 18.9881L27.5431 16.6174C26.9029 15.65 26.5613 14.5133 26.5613 13.3507Z" stroke="#1C1C1E" stroke-width="1.5"/>
<path d="M10.625 26.125C11.553 28.5282 14.0568 30.25 17 30.25C19.9432 30.25 22.447 28.5282 23.375 26.125" stroke="#1C1C1E" stroke-width="1.5" stroke-linecap="round"/>
<path d="M17 8.25V13.75" stroke="#1C1C1E" stroke-width="1.5" stroke-linecap="round"/>
</svg>
