<svg width="321" height="50" viewBox="0 0 321 50" fill="none" xmlns="http://www.w3.org/2000/svg">
<mask id="path-1-inside-1_139_3020" fill="white">
<path d="M0 8C0 3.58172 3.58172 0 8 0H313C317.418 0 321 3.58172 321 8V42C321 46.4183 317.418 50 313 50H8C3.58173 50 0 46.4183 0 42V8Z"/>
</mask>
<path d="M8 0V1H313V0V-1H8V0ZM321 8H320V42H321H322V8H321ZM313 50V49H8V50V51H313V50ZM0 42H1V8H0H-1V42H0ZM8 50V49C4.13401 49 1 45.866 1 42H0H-1C-1 46.9706 3.02944 51 8 51V50ZM321 42H320C320 45.866 316.866 49 313 49V50V51C317.971 51 322 46.9706 322 42H321ZM313 0V1C316.866 1 320 4.13401 320 8H321H322C322 3.02944 317.971 -1 313 -1V0ZM8 0V-1C3.02944 -1 -1 3.02944 -1 8H0H1C1 4.13401 4.13401 1 8 1V0Z" fill="#D1D5DC" mask="url(#path-1-inside-1_139_3020)"/>
<g clip-path="url(#clip0_139_3020)">
<path d="M29.7344 24.5V32.4062H28.5703V17.3359H29.7344V23.4453H32.2812V24.5H29.7344ZM22.4844 28.5859C21.3438 28.5859 20.4219 28.1302 19.7188 27.2188C19.0156 26.3073 18.6641 25.0547 18.6641 23.4609C18.6641 21.8516 19.0104 20.5964 19.7031 19.6953C20.401 18.7943 21.3281 18.3438 22.4844 18.3438C23.6458 18.3438 24.5729 18.8021 25.2656 19.7188C25.9635 20.6302 26.3125 21.8776 26.3125 23.4609C26.3125 25.0495 25.9635 26.3021 25.2656 27.2188C24.5677 28.1302 23.6406 28.5859 22.4844 28.5859ZM22.4844 19.3828C21.6875 19.3828 21.0417 19.75 20.5469 20.4844C20.0573 21.2135 19.8125 22.2057 19.8125 23.4609C19.8125 24.6953 20.0599 25.6849 20.5547 26.4297C21.0547 27.1745 21.6979 27.5469 22.4844 27.5469C23.2656 27.5469 23.9062 27.1719 24.4062 26.4219C24.9062 25.6719 25.1562 24.6849 25.1562 23.4609C25.1562 22.2109 24.9115 21.2188 24.4219 20.4844C23.9323 19.75 23.2865 19.3828 22.4844 19.3828ZM45.3672 32.4062V17.3359H46.5391V32.4062H45.3672ZM38.7109 28.6016C37.5651 28.6016 36.638 28.1406 35.9297 27.2188C35.2266 26.2917 34.875 25.0391 34.875 23.4609C34.875 21.862 35.224 20.6068 35.9219 19.6953C36.6198 18.7839 37.5495 18.3281 38.7109 18.3281C39.8672 18.3281 40.7995 18.7839 41.5078 19.6953C42.2161 20.6068 42.5703 21.862 42.5703 23.4609C42.5703 25.0495 42.2135 26.3047 41.5 27.2266C40.7917 28.1432 39.862 28.6016 38.7109 28.6016ZM38.7109 19.3672C37.9089 19.3672 37.2578 19.7422 36.7578 20.4922C36.2578 21.237 36.0078 22.2266 36.0078 23.4609C36.0078 24.6901 36.2604 25.6823 36.7656 26.4375C37.2708 27.1875 37.9193 27.5625 38.7109 27.5625C39.4974 27.5625 40.1432 27.1849 40.6484 26.4297C41.1589 25.6745 41.4141 24.6849 41.4141 23.4609C41.4141 22.2214 41.1641 21.2292 40.6641 20.4844C40.1693 19.7396 39.5182 19.3672 38.7109 19.3672ZM61.3672 32.4062V17.3359H62.5391V32.4062H61.3672ZM59.625 28.1172C58.7969 28.2161 57.8828 28.2786 56.8828 28.3047C55.888 28.3307 54.1042 28.3438 51.5312 28.3438V18.6797H58.7891V19.7188H52.6953V27.3047C56.4349 27.3047 58.7188 27.2396 59.5469 27.1094L59.625 28.1172ZM78.0547 23.1406H68.2812V19.8828H76.5703V18.5859H68.2812V17.5938H77.7188V20.7891H69.4297V22.1484H78.0547V23.1406ZM79.9922 25.3984H66.0078V24.4062H79.9922V25.3984ZM78.0859 32.25H68.2344V28.9531H76.6016V27.6562H68.2344V26.6641H77.75V29.8828H69.3828V31.2578H78.0859V32.25ZM98.9922 25V17.3359H100.164V25H98.9922ZM92.6406 24.6016C91.5156 24.6016 90.5964 24.2682 89.8828 23.6016C89.1745 22.9349 88.8203 22.0938 88.8203 21.0781C88.8203 20.0677 89.1745 19.2318 89.8828 18.5703C90.5911 17.9089 91.5104 17.5781 92.6406 17.5781C93.7656 17.5781 94.6849 17.9089 95.3984 18.5703C96.112 19.2266 96.4688 20.0625 96.4688 21.0781C96.4688 22.099 96.1094 22.9427 95.3906 23.6094C94.6771 24.2708 93.7604 24.6016 92.6406 24.6016ZM92.6406 18.5859C91.8333 18.5859 91.1875 18.8177 90.7031 19.2812C90.224 19.7396 89.9844 20.3385 89.9844 21.0781C89.9844 21.8229 90.224 22.4297 90.7031 22.8984C91.1823 23.362 91.8281 23.5938 92.6406 23.5938C93.4531 23.5938 94.099 23.362 94.5781 22.8984C95.0573 22.4297 95.2969 21.8229 95.2969 21.0781C95.2969 20.3385 95.0547 19.7396 94.5703 19.2812C94.0911 18.8177 93.4479 18.5859 92.6406 18.5859ZM90.8984 31.9922V25.8281H92.0469V27.9922H99.0078V25.8281H100.164V31.9922H90.8984ZM99.0078 29.0156H92.0469V30.9688H99.0078V29.0156ZM112.211 23.5156V22.5H114.992V20.6797H112.242V19.6719H114.992V17.3359H116.164V26.2344H114.992V23.5156H112.211ZM112.195 25.2578C111.393 25.388 110.607 25.4688 109.836 25.5C109.07 25.5312 107.492 25.5469 105.102 25.5469V21.125H110.148V19.0156H105.102V17.9922H111.312V22.1172H106.273V24.5234H108.078C109.786 24.5234 111.104 24.4375 112.031 24.2656L112.195 25.2578ZM114.992 32.4062V28.1016H106.352V27.0625H116.164V32.4062H114.992ZM131.422 32.4062V25.3203H129.633V31.9297H128.484V17.625H129.633V24.2812H131.422V17.3359H132.594V32.4062H131.422ZM119.664 21.0781V20.0391H123.008V17.7031H124.18V20.0391H127.523V21.0781H119.664ZM123.633 28.7578C122.685 28.7578 121.888 28.4479 121.242 27.8281C120.596 27.2031 120.273 26.4089 120.273 25.4453C120.273 24.4922 120.594 23.7031 121.234 23.0781C121.88 22.4479 122.68 22.1328 123.633 22.1328C124.581 22.1328 125.375 22.4453 126.016 23.0703C126.656 23.6901 126.977 24.4818 126.977 25.4453C126.977 26.4193 126.654 27.2161 126.008 27.8359C125.367 28.4505 124.576 28.7578 123.633 28.7578ZM123.633 23.1562C122.966 23.1562 122.424 23.3724 122.008 23.8047C121.596 24.237 121.391 24.7839 121.391 25.4453C121.391 26.1172 121.599 26.6667 122.016 27.0938C122.432 27.5208 122.971 27.7344 123.633 27.7344C124.284 27.7344 124.82 27.5234 125.242 27.1016C125.664 26.6745 125.875 26.1224 125.875 25.4453C125.875 24.7786 125.664 24.2318 125.242 23.8047C124.826 23.3724 124.289 23.1562 123.633 23.1562ZM148.352 23.5781C147.159 23.4115 146.003 23 144.883 22.3438C143.768 21.6823 143.016 21.0208 142.625 20.3594C142.26 21.0052 141.523 21.6693 140.414 22.3516C139.31 23.0339 138.148 23.474 136.93 23.6719L136.211 22.6953C137.591 22.5547 138.854 22.1198 140 21.3906C141.151 20.6615 141.818 19.8438 142 18.9375H137.188V17.8984H148.062V18.9375H143.234C143.411 19.8594 144.062 20.6719 145.188 21.375C146.312 22.0781 147.596 22.4974 149.039 22.6328L148.352 23.5781ZM143.219 26.3438V32.4062H142.031V26.3438H135.633V25.3047H149.617V26.3438H143.219ZM163.219 32.4062V17.3359H164.383V32.4062H163.219ZM160.484 31.9453V23.5625H157.859V22.5234H160.484V17.6406H161.633V31.9453H160.484ZM158.414 28.875C157.065 27.5469 156.122 25.9766 155.586 24.1641C155.414 24.9036 155.034 25.7474 154.445 26.6953C153.862 27.6432 153.234 28.4375 152.562 29.0781L151.648 28.3438C152.534 27.7188 153.318 26.7318 154 25.3828C154.682 24.0286 155.023 22.7057 155.023 21.4141V18.4375H156.18V21.4297C156.18 22.6849 156.484 23.9349 157.094 25.1797C157.708 26.4245 158.443 27.4036 159.297 28.1172L158.414 28.875ZM167.633 30.0234V28.9844H171.25V25.1406C170.109 24.4844 169.539 23.5 169.539 22.1875C169.539 21.0052 170.005 20.0885 170.938 19.4375C171.875 18.7812 173.104 18.4531 174.625 18.4531C176.151 18.4531 177.378 18.7812 178.305 19.4375C179.232 20.0885 179.695 21.0052 179.695 22.1875C179.695 23.5 179.13 24.4844 178 25.1406V28.9844H181.617V30.0234H167.633ZM170.75 22.1875C170.75 23.026 171.104 23.6849 171.812 24.1641C172.526 24.638 173.464 24.875 174.625 24.875C175.786 24.875 176.719 24.6354 177.422 24.1562C178.13 23.6771 178.484 23.0208 178.484 22.1875C178.484 21.349 178.128 20.6875 177.414 20.2031C176.706 19.7188 175.776 19.4766 174.625 19.4766C173.469 19.4766 172.534 19.7188 171.82 20.2031C171.107 20.6875 170.75 21.349 170.75 22.1875ZM172.414 25.625V28.9844H176.836V25.625C176.211 25.8177 175.474 25.9141 174.625 25.9141C173.849 25.9141 173.112 25.8177 172.414 25.625Z" fill="black" fill-opacity="0.5"/>
</g>
<defs>
<clipPath id="clip0_139_3020">
<rect width="287" height="21" fill="white" transform="translate(17 14)"/>
</clipPath>
</defs>
</svg>
