<svg width="321" height="48" viewBox="0 0 321 48" fill="none" xmlns="http://www.w3.org/2000/svg">
<rect width="321" height="48" rx="8" fill="#9810FA"/>
<path d="M129.844 20.6016V18.9531H133.555V17.2266H135.523V18.9531H139.234V20.6016H129.844ZM140.547 32.4062V17.3359H142.516V32.4062H140.547ZM140.023 29.9922C137.227 30.1536 133.63 30.2344 129.234 30.2344L129.047 28.6016L133.555 28.5703V27C132.633 26.8438 131.914 26.5078 131.398 25.9922C130.883 25.4714 130.625 24.8411 130.625 24.1016C130.625 23.2266 130.982 22.513 131.695 21.9609C132.414 21.4036 133.365 21.125 134.547 21.125C135.76 21.125 136.711 21.3932 137.398 21.9297C138.091 22.4609 138.438 23.1641 138.438 24.0391C138.438 24.763 138.182 25.3958 137.672 25.9375C137.167 26.474 136.451 26.8229 135.523 26.9844V28.5234C137.799 28.4714 139.255 28.4167 139.891 28.3594L140.023 29.9922ZM134.547 22.7422C133.958 22.7422 133.484 22.875 133.125 23.1406C132.771 23.4062 132.594 23.7318 132.594 24.1172C132.594 24.5026 132.768 24.8229 133.117 25.0781C133.466 25.3333 133.943 25.4609 134.547 25.4609C135.151 25.4609 135.625 25.3359 135.969 25.0859C136.312 24.8359 136.484 24.513 136.484 24.1172C136.484 23.7109 136.312 23.3802 135.969 23.125C135.63 22.8698 135.156 22.7422 134.547 22.7422ZM156.195 28.7891V27.7031H153.281V26.1875H156.195V17.3359H158.164V28.7891H156.195ZM150.516 23.1406C149.354 23.1406 148.411 22.888 147.688 22.3828C146.969 21.8776 146.609 21.2083 146.609 20.375C146.609 19.5417 146.974 18.875 147.703 18.375C148.438 17.875 149.375 17.625 150.516 17.625C151.688 17.625 152.628 17.8724 153.336 18.3672C154.049 18.8568 154.406 19.526 154.406 20.375C154.406 21.2135 154.042 21.8854 153.312 22.3906C152.589 22.8906 151.656 23.1406 150.516 23.1406ZM150.516 19.1406C149.917 19.1406 149.44 19.2604 149.086 19.5C148.737 19.7396 148.562 20.0312 148.562 20.375C148.562 20.7292 148.734 21.026 149.078 21.2656C149.422 21.5052 149.901 21.625 150.516 21.625C151.12 21.625 151.596 21.5026 151.945 21.2578C152.294 21.013 152.469 20.7188 152.469 20.375C152.469 20.0052 152.299 19.7083 151.961 19.4844C151.628 19.2552 151.146 19.1406 150.516 19.1406ZM155.445 25.2266C154.299 25.3047 153.154 25.3672 152.008 25.4141V28.5547H150.102V25.4922C148.388 25.5599 146.964 25.5938 145.828 25.5938L145.555 23.8984C149.232 23.8984 152.484 23.8021 155.312 23.6094L155.445 25.2266ZM147.781 31.9297V27.2734H149.734V30.2812H158.531V31.9297H147.781ZM173.672 24.9219V32.4062H171.703V17.3359H173.672V23.2734H176.008V24.9219H173.672ZM162.945 29.1094L161.477 27.7344C164.846 25.8854 166.883 23.401 167.586 20.2812H162.344V18.6328H169.812C169.401 23.0495 167.112 26.5417 162.945 29.1094ZM188.258 25.4297V17.3359H190.18V25.4297H188.258ZM182.039 25.0625C180.909 25.0625 179.966 24.7057 179.211 23.9922C178.461 23.2734 178.086 22.3724 178.086 21.2891C178.086 20.2161 178.461 19.3151 179.211 18.5859C179.961 17.8568 180.904 17.4922 182.039 17.4922C183.19 17.4922 184.141 17.8594 184.891 18.5938C185.646 19.3229 186.023 20.2214 186.023 21.2891C186.023 22.3568 185.643 23.2526 184.883 23.9766C184.128 24.7005 183.18 25.0625 182.039 25.0625ZM182.039 19.125C181.424 19.125 180.932 19.3255 180.562 19.7266C180.193 20.1276 180.008 20.6484 180.008 21.2891C180.008 21.9297 180.19 22.4531 180.555 22.8594C180.924 23.2604 181.419 23.4609 182.039 23.4609C182.659 23.4609 183.154 23.2578 183.523 22.8516C183.898 22.4453 184.086 21.9245 184.086 21.2891C184.086 20.6484 183.898 20.1276 183.523 19.7266C183.148 19.3255 182.654 19.125 182.039 19.125ZM180.453 32.0859V26.0703H182.375V27.6094H188.258V26.0703H190.164V32.0859H180.453ZM188.258 29.2422H182.375V30.4844H188.258V29.2422Z" fill="white"/>
</svg>
